<?xml version="1.0" encoding="UTF-8" ?>
<!DOCTYPE svg PUBLIC "-//W3C//DTD SVG 1.1//EN" "http://www.w3.org/Graphics/SVG/1.1/DTD/svg11.dtd">
<svg width="20pt" height="22pt" viewBox="0 0 20 22" version="1.1" xmlns="http://www.w3.org/2000/svg">
<g id="#d20912ff">
<path fill="#d20912" opacity="1.00" d=" M 5.79 0.00 L 14.10 0.00 C 14.52 0.94 14.94 1.88 15.36 2.83 C 16.92 3.05 18.48 3.25 20.00 3.66 L 20.00 7.94 C 19.48 8.30 18.45 9.02 17.93 9.38 C 17.43 13.59 17.60 17.91 16.34 22.00 L 3.81 22.00 C 2.11 18.01 2.69 13.53 2.09 9.31 C 1.57 8.99 0.52 8.34 0.00 8.01 L 0.00 3.81 C 1.48 3.06 3.15 3.00 4.77 2.88 C 5.09 1.91 5.43 0.95 5.79 0.00 M 7.02 2.34 C 7.65 3.09 8.63 3.35 9.97 3.11 C 10.50 3.29 14.36 2.95 12.37 2.06 C 10.62 1.88 8.68 1.61 7.02 2.34 M 2.03 5.09 C 2.03 5.56 2.02 6.50 2.02 6.97 C 7.34 7.03 12.67 6.99 18.00 7.00 C 18.00 6.51 18.00 5.55 18.00 5.06 C 12.68 5.07 7.36 5.04 2.03 5.09 M 4.14 9.06 C 4.44 12.71 4.74 16.35 5.04 20.00 C 8.35 20.00 11.65 20.00 14.96 20.00 C 15.26 16.35 15.56 12.71 15.86 9.06 C 11.95 9.06 8.05 9.06 4.14 9.06 Z" />
</g>
</svg>
